# Blender v2.75 (sub 0) OBJ File: 'untitled.blend'
# www.blender.org
mtllib Square Clay Pot.mtl
o Cube
v -1.498679 -2.062920 -1.277960
v 1.276979 4.013122 -1.400944
v 1.276977 4.013122 1.497698
v -1.621665 4.013122 1.497697
v -1.621664 4.013122 -1.400944
v 0.827657 -1.353816 -0.951623
v 0.827656 -1.353816 1.048377
v -1.172343 -1.353816 1.048376
v -1.172343 -1.353816 -0.951624
v 1.143878 -1.774761 -1.267844
v 1.143878 -1.774761 1.364598
v -1.488564 -1.774761 1.364597
v -1.488564 -1.774761 -1.267845
v 1.153993 -2.062920 -1.277959
v 1.153993 -2.062920 1.374713
v -1.498680 -2.062920 1.374712
v 1.276978 3.288462 -1.400944
v 1.276977 3.288462 1.497698
v -1.621664 3.288462 1.497697
v -1.621664 3.288462 -1.400944
v 1.407623 3.650792 -1.531588
v 1.407621 3.650792 1.628342
v -1.752308 3.650792 1.628341
v -1.752308 3.650792 -1.531589
v 0.899648 3.741015 -1.023614
v 0.899647 3.741015 1.120368
v -1.244335 3.741015 1.120367
v -1.244334 3.741015 -1.023615
v 0.444039 -1.607715 -0.568005
v 0.444038 -1.607715 0.664759
v -0.788725 -1.607715 0.664758
v -0.788725 -1.607715 -0.568006
v 0.876176 3.482090 -1.000142
v 0.876175 3.482090 1.096896
v -1.220862 3.482090 1.096895
v -1.220862 3.482090 -1.000143
v 0.984080 3.650792 -1.108045
v 0.984079 3.650792 1.204799
v -1.328765 3.650792 1.204798
v -1.328765 3.650792 -1.108046
vt 0.453125 0.875000
vt 0.203125 0.875000
vt 0.203125 0.843750
vt -0.015625 0.875000
vt -0.015625 0.843750
vt 0.953125 0.875000
vt 0.703125 0.875000
vt 0.703125 0.843750
vt 0.453125 0.812500
vt 0.453125 0.437500
vt 0.703125 0.437500
vt 0.953125 0.437500
vt 0.703125 0.406250
vt 0.203125 0.437500
vt -0.015625 0.437500
vt -0.015625 0.406250
vt 0.203125 0.406250
vt 0.453125 0.406250
vt 0.453125 0.375000
vt 0.703125 0.375000
vt 0.203125 0.375000
vt -0.015625 0.375000
vt 0.953125 0.406250
vt 0.500000 0.187500
vt 0.500000 0.000000
vt 0.687500 0.000000
vt 0.703125 0.812500
vt 0.953125 0.812500
vt 0.203125 0.812500
vt -0.015625 0.812500
vt 0.453125 0.843750
vt 0.953125 0.843750
vt 0.500000 0.203125
vt 0.484375 0.187500
vt 0.312500 0.015625
vt 0.296875 0.000000
vt 0.312500 0.187500
vt 0.296875 0.203125
vt 0.812500 0.156250
vt 0.843750 0.156250
vt 1.000000 0.000000
vt 0.328125 0.171875
vt 0.468750 0.171875
vt 1.000000 0.312500
vt 0.687500 0.312500
vt 0.843750 0.125000
vt 0.328125 0.031250
vt 0.484375 0.015625
vt 0.468750 0.031250
vt 0.296875 0.218750
vt 0.265625 0.187500
vt 0.265625 0.046875
vt 0.078125 0.218750
vt 0.109375 0.187500
vt 0.078125 0.000000
vt 0.109375 0.046875
vt 0.375000 0.328125
vt 0.375000 0.140625
vt 0.562500 0.140625
vt 0.953125 0.375000
vt 0.687500 0.187500
vt 0.562500 0.328125
vn 0.940700 0.339200 0.000000
vn -0.000000 0.339200 0.940700
vn -0.940700 0.339200 -0.000000
vn 0.000000 -0.096300 -0.995300
vn -0.799500 0.600600 -0.000000
vn -0.000000 0.600600 0.799500
vn 0.799500 0.600600 0.000000
vn 0.000000 0.600600 -0.799500
vn 0.000000 0.035100 -0.999400
vn 0.999400 0.035100 0.000000
vn -0.000000 0.035100 0.999400
vn -0.999400 0.035100 -0.000000
vn 0.000000 -1.000000 0.000000
vn 0.000000 -0.339200 -0.940700
vn -0.995300 -0.096300 -0.000000
vn -0.000000 -0.096300 0.995300
vn 0.995300 -0.096300 0.000000
vn 0.000000 0.339200 -0.940700
vn -0.940700 -0.339200 -0.000000
vn -0.000000 -0.339200 0.940700
vn 0.940700 -0.339200 0.000000
vn -0.730200 -0.683300 -0.000000
vn 0.000000 -0.683300 -0.730200
vn 0.730200 -0.683300 0.000000
vn -0.000000 0.084600 0.996400
vn -0.000000 0.538800 0.842400
vn 0.996400 0.084600 0.000000
vn 0.000000 0.084600 -0.996400
vn -0.996400 0.084600 -0.000000
vn -0.000000 -0.683300 0.730200
vn 0.842400 0.538800 0.000000
vn 0.000000 0.538800 -0.842400
vn -0.842400 0.538800 -0.000000
vn -0.584900 0.811100 -0.000000
vn -0.000000 0.811100 0.584900
vn 0.000000 0.811100 -0.584900
vn 0.584900 0.811100 0.000000
vn 0.000000 1.000000 0.000000
usemtl Material
s off
f 2/1/1 3/2/1 22/3/1
f 3/2/2 4/4/2 23/5/2
f 4/6/3 5/7/3 24/8/3
f 17/9/4 6/10/4 9/11/4
f 8/12/5 9/11/5 13/13/5
f 7/14/6 8/15/6 12/16/6
f 6/10/7 7/14/7 11/17/7
f 10/18/8 13/13/8 9/11/8
f 14/19/9 1/20/9 13/13/9
f 10/18/10 11/17/10 15/21/10
f 11/17/11 12/16/11 16/22/11
f 12/23/12 13/13/12 1/20/12
f 15/24/13 16/25/13 1/26/13
f 17/9/14 20/27/14 24/8/14
f 19/28/15 20/27/15 9/11/15
f 7/14/16 18/29/16 19/30/16
f 17/9/17 18/29/17 7/14/17
f 21/31/18 24/8/18 5/7/18
f 23/32/19 24/8/19 20/27/19
f 22/3/20 23/5/20 19/30/20
f 21/31/21 22/3/21 18/29/21
f 26/25/22 25/33/22 37/34/22
f 39/35/23 27/36/23 26/25/23
f 40/37/24 28/38/24 27/36/24
f 32/39/25 29/40/25 33/41/25
f 40/37/26 36/42/26 33/43/26
f 36/44/27 35/45/27 31/46/27
f 35/45/28 34/26/28 30/40/28
f 34/26/29 33/41/29 29/40/29
f 40/37/30 37/34/30 25/33/30
f 40/37/31 39/35/31 35/47/31
f 39/35/32 38/48/32 34/49/32
f 38/48/33 37/34/33 33/43/33
f 2/50/34 25/51/34 26/52/34
f 5/53/35 28/54/35 25/51/35
f 4/55/36 3/36/36 26/52/36
f 5/53/37 4/55/37 27/56/37
f 32/57/38 31/58/38 30/59/38
f 21/31/1 2/1/1 22/3/1
f 22/3/2 3/2/2 23/5/2
f 23/32/3 4/6/3 24/8/3
f 20/27/4 17/9/4 9/11/4
f 12/23/5 8/12/5 13/13/5
f 11/17/6 7/14/6 12/16/6
f 10/18/7 6/10/7 11/17/7
f 6/10/8 10/18/8 9/11/8
f 10/18/9 14/19/9 13/13/9
f 14/19/10 10/18/10 15/21/10
f 15/21/11 11/17/11 16/22/11
f 16/60/12 12/23/12 1/20/12
f 14/61/13 15/24/13 1/26/13
f 21/31/14 17/9/14 24/8/14
f 8/12/15 19/28/15 9/11/15
f 8/15/16 7/14/16 19/30/16
f 6/10/17 17/9/17 7/14/17
f 2/1/18 21/31/18 5/7/18
f 19/28/19 23/32/19 20/27/19
f 18/29/20 22/3/20 19/30/20
f 17/9/21 21/31/21 18/29/21
f 38/48/22 26/25/22 37/34/22
f 38/48/23 39/35/23 26/25/23
f 39/35/24 40/37/24 27/36/24
f 36/44/25 32/39/25 33/41/25
f 37/34/26 40/37/26 33/43/26
f 32/39/27 36/44/27 31/46/27
f 31/46/28 35/45/28 30/40/28
f 30/40/29 34/26/29 29/40/29
f 28/38/30 40/37/30 25/33/30
f 36/42/31 40/37/31 35/47/31
f 35/47/32 39/35/32 34/49/32
f 34/49/33 38/48/33 33/43/33
f 3/36/34 2/50/34 26/52/34
f 2/50/35 5/53/35 25/51/35
f 27/56/36 4/55/36 26/52/36
f 28/54/37 5/53/37 27/56/37
f 29/62/38 32/57/38 30/59/38
