# Blender v2.75 (sub 0) OBJ File: 'woodenbarrel.blend'
# www.blender.org
mtllib barrel.mtl
o Cube
v 0.000000 -2.394631 -0.000000
v -0.000000 2.652570 0.000000
v -0.000001 2.652570 1.300000
v 0.000000 2.652570 -1.300000
v 0.000000 -2.394631 1.300000
v 0.000000 -2.394631 -1.300000
v -1.300000 2.652570 -0.000000
v 1.300000 2.652570 0.000001
v -1.300000 -2.394631 -0.000000
v 1.300000 -2.394631 0.000000
v -1.000000 2.652570 -1.000000
v -1.000000 2.652570 1.000000
v 0.999999 2.652570 1.000001
v 1.000000 2.652570 -0.999999
v -1.000000 -2.394631 -1.000000
v -1.000000 -2.394631 1.000000
v 1.000000 -2.394631 1.000000
v 1.000000 -2.394631 -1.000000
v 0.000000 -0.685617 -1.787060
v -1.374661 -0.685617 -1.374662
v -1.374662 -0.685617 1.374661
v 1.374661 -0.685617 1.374662
v 1.374662 -0.685617 -1.374661
v -0.000000 -0.685617 1.787060
v 1.787060 -0.685617 0.000000
v -1.787060 -0.685617 -0.000000
v -0.000000 0.741668 1.787060
v 0.000000 0.741668 -1.787060
v 1.787060 0.741668 0.000000
v -1.787060 0.741668 -0.000000
v -1.374661 0.741668 -1.374662
v -1.374662 0.741668 1.374661
v 1.374661 0.741668 1.374662
v 1.374662 0.741668 -1.374661
v -0.000001 2.652570 1.300000
v 0.000000 2.652570 -1.300000
v 0.000000 -2.394631 1.300000
v 0.000000 -2.394631 -1.300000
v -1.300000 2.652570 -0.000000
v 1.300000 2.652570 0.000001
v -1.300000 -2.394631 -0.000000
v 1.300000 -2.394631 0.000000
v -1.000000 2.652570 -1.000000
v -1.000000 2.652570 1.000000
v 0.999999 2.652570 1.000001
v 1.000000 2.652570 -0.999999
v -1.000000 -2.394631 -1.000000
v -1.000000 -2.394631 1.000000
v 1.000000 -2.394631 1.000000
v 1.000000 -2.394631 -1.000000
vt 0.358930 0.431308
vt 0.359216 0.442670
vt 0.352338 0.438775
vt 0.353021 0.465897
vt 0.346143 0.462002
vt 0.349031 0.452438
vt 0.359613 0.458430
vt 0.359899 0.469792
vt 0.348349 0.425316
vt 0.354030 0.425173
vt 0.350647 0.452377
vt 0.345746 0.446242
vt 0.357010 0.479357
vt 0.351329 0.479500
vt 0.346429 0.473365
vt 0.356328 0.452234
vt -1.244250 0.363354
vt -0.727045 0.363354
vt -0.727045 0.605776
vt 1.720228 0.363354
vt 2.245998 0.363354
vt 2.245998 0.605776
vt 0.897644 0.009662
vt 0.897644 0.363354
vt 0.496618 0.363354
vt 1.720228 0.009662
vt 1.303311 0.363354
vt 0.093766 0.009662
vt 0.093766 0.363354
vt -0.311468 0.363354
vt -0.727045 0.009662
vt 1.303311 0.605776
vt 0.897644 0.605776
vt 0.496618 0.605776
vt 0.093766 0.605776
vt -0.311468 0.605776
vt -1.244250 0.605776
vt -0.727045 0.991936
vt 1.720228 0.605776
vt 1.720228 0.991936
vt 0.897644 0.991936
vt 0.496618 0.991936
vt 2.245998 0.009662
vt 1.303311 0.991936
vt 0.093766 0.991936
vt -0.311468 0.991936
vt -1.244250 0.009662
vt 0.354712 0.452295
vt 0.345460 0.434880
vt 0.496618 0.009662
vt 1.303311 0.009662
vt -0.311468 0.009662
vt -1.244250 0.991936
vt 2.245998 0.991936
vn 0.000000 -1.000000 0.000000
vn 0.000000 1.000000 0.000000
vn 0.000000 -0.135000 -0.990800
vn -0.699800 -0.143400 -0.699800
vn -0.701100 0.129700 -0.701100
vn 0.699800 -0.143400 -0.699800
vn 0.000000 0.121700 -0.992600
vn 0.675400 -0.296100 0.675400
vn 0.699800 -0.143400 0.699800
vn 0.000000 -0.135000 0.990800
vn 0.675400 -0.296100 -0.675400
vn 0.990800 -0.135000 0.000000
vn -0.675400 -0.296100 0.675400
vn -0.699800 -0.143400 0.699800
vn -0.990800 -0.135000 0.000000
vn -0.675400 -0.296100 -0.675400
vn 0.992600 0.121700 0.000000
vn 0.701100 0.129700 0.701100
vn 0.000000 0.121700 0.992600
vn -0.701100 0.129700 0.701100
vn -0.992600 0.121700 0.000000
vn -0.681400 0.267200 -0.681400
vn 0.701100 0.129700 -0.701100
vn 0.681400 0.267200 -0.681400
vn 0.681400 0.267200 0.681400
vn 0.000000 0.247000 0.969000
vn 0.000000 -0.274100 -0.961700
vn 0.969000 0.247000 0.000000
vn -0.681400 0.267200 0.681400
vn -0.969000 0.247000 0.000000
vn 0.000000 -0.274100 0.961700
vn 0.961700 -0.274100 0.000000
vn -0.961700 -0.274100 0.000000
vn 0.000000 0.247000 -0.969000
usemtl Material
s 1
f 17/1/1 5/2/1 1/3/1
f 2/4/2 3/5/2 13/6/2
f 14/7/2 4/8/2 2/4/2
f 18/9/1 10/10/1 1/3/1
f 1/3/1 9/11/1 15/12/1
f 11/13/2 7/14/2 2/4/2
f 2/4/2 7/14/2 12/15/2
f 1/3/1 5/2/1 16/16/1
f 19/17/3 20/18/4 31/19/5
f 23/20/6 19/21/3 28/22/7
f 49/23/8 22/24/9 24/25/10
f 50/26/11 23/20/6 25/27/12
f 48/28/13 21/29/14 26/30/15
f 26/30/15 20/18/4 47/31/16
f 24/25/10 21/29/14 48/28/13
f 25/27/12 22/24/9 49/23/8
f 29/32/17 33/33/18 22/24/9
f 27/34/19 32/35/20 21/29/14
f 30/36/21 31/19/5 20/18/4
f 28/37/7 31/19/5 43/38/22
f 21/29/14 32/35/20 30/36/21
f 34/39/23 29/32/17 25/27/12
f 46/40/24 34/39/23 28/22/7
f 33/33/18 27/34/19 24/25/10
f 45/41/25 35/42/26 27/34/19
f 50/26/11 38/43/27 19/21/3
f 46/40/24 40/44/28 29/32/17
f 44/45/29 39/46/30 30/36/21
f 19/17/3 38/47/27 47/31/16
f 30/36/21 39/46/30 43/38/22
f 27/34/19 35/42/26 44/45/29
f 29/32/17 40/44/28 45/41/25
f 10/10/1 17/1/1 1/3/1
f 8/48/2 2/4/2 13/6/2
f 8/48/2 14/7/2 2/4/2
f 6/49/1 18/9/1 1/3/1
f 6/49/1 1/3/1 15/12/1
f 4/8/2 11/13/2 2/4/2
f 3/5/2 2/4/2 12/15/2
f 9/11/1 1/3/1 16/16/1
f 28/37/7 19/17/3 31/19/5
f 34/39/23 23/20/6 28/22/7
f 37/50/31 49/23/8 24/25/10
f 42/51/32 50/26/11 25/27/12
f 41/52/33 48/28/13 26/30/15
f 41/52/33 26/30/15 47/31/16
f 37/50/31 24/25/10 48/28/13
f 42/51/32 25/27/12 49/23/8
f 25/27/12 29/32/17 22/24/9
f 24/25/10 27/34/19 21/29/14
f 26/30/15 30/36/21 20/18/4
f 36/53/34 28/37/7 43/38/22
f 26/30/15 21/29/14 30/36/21
f 23/20/6 34/39/23 25/27/12
f 36/54/34 46/40/24 28/22/7
f 22/24/9 33/33/18 24/25/10
f 33/33/18 45/41/25 27/34/19
f 23/20/6 50/26/11 19/21/3
f 34/39/23 46/40/24 29/32/17
f 32/35/20 44/45/29 30/36/21
f 20/18/4 19/17/3 47/31/16
f 31/19/5 30/36/21 43/38/22
f 32/35/20 27/34/19 44/45/29
f 33/33/18 29/32/17 45/41/25
