# Blender v2.75 (sub 0) OBJ File: 'camp_fire.blend'
# www.blender.org
mtllib camp_fire.mtl
v 0.378170 0.163800 0.350510
v -1.395651 -0.394763 -0.546242
v 0.328683 0.320976 0.275691
v -1.408334 -0.248200 -0.538509
v 0.423128 0.169394 0.183291
v -1.307851 -0.377180 -0.725094
v 0.379876 0.363713 0.147809
v -1.321295 -0.171974 -0.712214
v -0.552145 0.032503 -0.104622
v -0.534879 -0.186200 -0.085413
v -0.473996 0.066834 -0.280587
v -0.405852 -0.108025 -0.306465
v -0.271878 -0.028722 0.514241
v 0.670598 -0.233216 -1.311278
v -0.196631 0.135062 0.497995
v 0.662471 -0.086971 -1.295536
v -0.105836 -0.031940 0.563578
v 0.847167 -0.232968 -1.217311
v -0.070245 0.167076 0.559659
v 0.833630 -0.029042 -1.191091
v 0.206460 0.022620 -0.412271
v 0.187890 -0.195287 -0.438154
v 0.380298 0.041167 -0.324600
v 0.405347 -0.143577 -0.290973
v 0.720634 -0.028722 0.382084
v -1.065446 -0.233216 1.397317
v 0.648717 0.135062 0.354628
v -1.050044 -0.086970 1.388562
v 0.608433 -0.031940 0.250118
v -1.162109 -0.232967 1.222210
v 0.576472 0.167076 0.233977
v -1.136456 -0.029042 1.207628
v -0.185862 0.022620 0.897349
v -0.184428 -0.195286 0.929172
v -0.283673 0.041168 0.729008
v -0.286308 -0.143577 0.687160
v -0.397961 0.268711 0.043558
v 1.015712 -0.382433 1.400074
v -0.378656 0.417725 0.144419
v 1.026440 -0.235870 1.410368
v -0.493537 0.258463 0.187693
v 0.875521 -0.381642 1.542735
v -0.468675 0.448256 0.252887
v 0.887098 -0.176218 1.553844
v 0.344133 0.089568 0.755648
v 0.339405 -0.126191 0.711787
v 0.213580 0.107256 0.900192
v 0.145240 -0.068927 0.886841
v 0.314066 0.467743 1.219892
v 1.201022 -0.126901 -0.547112
v 0.202848 0.333513 1.171273
v 1.119117 -0.243993 -0.511297
v 0.197199 0.523145 1.104622
v 1.046188 -0.050068 -0.647758
v 0.079523 0.358743 1.100879
v 0.930151 -0.211547 -0.593754
v 0.684497 0.034715 0.345172
v 0.823815 0.202837 0.316472
v 0.525997 0.092423 0.246192
v 0.584978 0.269913 0.216067
v -0.729344 0.522004 -0.066536
v 0.065356 -0.230719 1.684022
v -0.865209 0.555993 0.048078
v -0.040930 -0.141185 1.732896
v -0.827783 0.381224 -0.044062
v -0.066001 -0.381338 1.675932
v -0.977887 0.466887 0.060916
v -0.215736 -0.255006 1.739777
v -0.432767 0.229134 0.890614
v -0.259695 0.120912 0.807959
v -0.571871 0.091718 0.894675
v -0.475151 -0.037333 0.795277
v -0.001065 -0.188829 -0.450253
v -1.639357 -0.136828 0.805092
v 0.081351 -0.173022 -0.289913
v -1.530004 -0.174017 0.896528
v 0.002643 -0.023432 -0.398828
v -1.602708 0.056534 0.840787
v 0.124483 -0.045194 -0.238919
v -1.446710 0.004678 0.965011
v -0.730310 -0.201885 0.296673
v -0.889443 -0.173915 0.147032
v -0.685699 -0.018316 0.347290
v -0.787473 0.065108 0.211013
v 0.457748 0.165327 0.422818
v -0.457007 -0.315259 -1.364598
v 0.489146 0.316585 0.328550
v -0.449119 -0.168297 -1.371055
v 0.595726 0.146295 0.319791
v -0.276815 -0.328154 -1.450452
v 0.613613 0.338323 0.259006
v -0.263677 -0.122579 -1.455203
v -0.006521 0.074756 -0.507837
v -0.038375 -0.140690 -0.475181
v 0.166979 0.079718 -0.597964
v 0.208909 -0.102945 -0.570310
v 0.402888 -0.028722 0.771575
v -0.746282 -0.233216 -0.931418
v 0.424751 0.135062 0.697764
v -0.736373 -0.086971 -0.916733
v 0.525864 -0.031940 0.649587
v -0.579101 -0.232968 -1.041221
v 0.539508 0.167076 0.616482
v -0.562596 -0.029042 -1.016761
v -0.180355 0.022620 -0.092751
v -0.211974 -0.195287 -0.088883
v -0.020007 0.041168 -0.203180
v 0.021516 -0.143577 -0.209015
v 0.159967 1.214230 0.146563
v 0.159967 -0.520718 -0.972611
v 0.100558 1.095951 0.269980
v 0.159967 -0.571667 -0.834388
v -0.010206 1.186926 0.128950
v -0.040033 -0.518611 -0.971252
v -0.040033 1.078511 0.297015
v -0.040033 -0.585379 -0.776321
v 0.159967 0.262919 -0.283408
v 0.188342 0.349437 -0.483926
v -0.034718 0.252815 -0.267745
v -0.072402 0.353455 -0.423758
v -0.194294 1.051772 -0.243611
v 0.818186 -0.432630 0.773262
v -0.166825 1.134103 -0.084809
v 0.852914 -0.311741 0.849952
v -0.314099 1.004142 -0.127884
v 0.657426 -0.459350 0.889230
v -0.267672 1.135938 0.018281
v 0.703340 -0.287668 0.993506
v 0.366235 0.414443 0.364242
v 0.330893 0.246087 0.226746
v 0.217489 0.399357 0.490324
v 0.122248 0.267690 0.392950
v 0.327057 0.893501 0.371458
v -1.430019 -0.160912 0.623436
v 0.206679 1.017823 0.318502
v -1.476478 -0.021132 0.621264
v 0.280526 0.868007 0.206535
v -1.450073 -0.170091 0.424640
v 0.174570 1.038079 0.179363
v -1.510542 0.026852 0.421021
v -0.630868 0.498669 0.499346
v -0.547800 0.296924 0.529282
v -0.662033 0.504483 0.306357
v -0.570928 0.343188 0.266702
vt 0.265625 0.500000
vt 0.000000 0.500000
vt 0.000000 -0.000000
vt 0.539062 0.500000
vt 0.265625 0.000000
vt 0.539062 -0.000000
vt 0.781250 0.000000
vt 0.781250 0.500000
vt 1.000000 0.000000
vt 0.085938 0.023438
vt 0.085938 0.007812
vt 0.101562 0.007812
vt 0.132812 0.976562
vt 0.132812 0.992188
vt 0.117188 0.992188
vt 0.781250 1.000000
vt 1.000000 0.500000
vt 0.539062 1.000000
vt 0.265625 1.000000
vt 0.000000 1.000000
vt 0.101562 0.023438
vt 0.117188 0.976562
vt 1.000000 1.000000
vn 0.717100 0.123700 -0.685900
vn 0.274000 0.952800 0.130900
vn -0.185800 -0.966500 -0.177200
vn -0.668800 -0.002500 0.743400
vn 0.709300 -0.100900 0.697600
vn -0.768400 0.424000 -0.479400
vn -0.672100 0.206800 0.711000
vn -0.273500 -0.929500 -0.247500
vn 0.393400 0.916800 0.068400
vn 0.692500 0.340700 -0.635900
vn 0.712700 -0.002900 -0.701400
vn 0.412800 0.910500 0.022400
vn -0.339300 -0.938100 -0.069500
vn -0.640600 0.192200 0.743400
vn 0.698800 -0.077800 0.711000
vn -0.684700 0.315400 -0.657000
vn -0.717500 -0.140400 0.682300
vn -0.364100 -0.925900 -0.100900
vn 0.297800 0.942200 0.153700
vn 0.702600 0.127000 -0.700200
vn -0.462400 0.041300 0.885700
vn -0.296400 0.953500 0.054400
vn 0.227400 -0.973700 0.015900
vn 0.398900 0.083500 -0.913200
vn -0.894300 -0.053900 -0.444300
vn 0.882800 0.397300 0.250600
vn 0.413500 0.288900 -0.863500
vn 0.333000 -0.941100 0.058100
vn -0.390100 0.908900 0.147600
vn -0.453700 0.262500 0.851600
vn -0.453900 -0.086100 0.886900
vn -0.394000 0.897800 0.196600
vn 0.339000 -0.931500 -0.131600
vn 0.373200 0.276500 -0.885600
vn -0.888400 -0.029500 -0.458100
vn 0.859200 0.270500 0.434300
vn 0.463800 -0.058200 -0.884000
vn 0.372500 -0.921700 -0.108500
vn -0.326300 0.944400 0.039300
vn -0.444000 0.043600 0.895000
vn -0.874400 0.130000 -0.467500
vn -0.051700 0.992900 -0.107500
vn -0.016800 -0.999300 0.034100
vn 0.902800 0.004600 0.430100
vn 0.466300 0.120200 -0.876400
vn -0.274000 0.218800 0.936500
vn 0.851700 0.203400 0.482900
vn -0.061600 -0.987800 0.143000
vn -0.142400 0.967200 -0.210300
vn -0.841500 0.345400 -0.415300
vn -0.875100 0.003500 -0.483900
vn -0.191200 0.957100 -0.217500
vn 0.127700 -0.979600 0.155400
vn 0.874900 0.199000 0.441600
vn 0.479800 0.143100 -0.865600
vn -0.456500 0.099000 0.884200
vn 0.872700 -0.146900 0.465600
vn 0.103800 -0.976300 0.189600
vn -0.035900 0.989800 -0.138200
vn -0.884100 0.128700 -0.449300
vn 0.477400 0.130000 0.869000
vn -0.015300 0.992900 0.118300
vn 0.032700 -0.999300 -0.019500
vn -0.521700 0.004600 -0.853100
vn -0.869000 0.120300 0.479900
vn 0.740800 0.218800 -0.635100
vn -0.450100 0.203400 -0.869500
vn 0.129700 -0.987800 -0.086200
vn 0.004600 0.967200 0.253900
vn 0.478500 0.345400 0.807300
vn 0.469100 0.003500 0.883100
vn 0.041500 0.957100 0.286600
vn -0.022200 -0.979600 -0.200000
vn -0.492000 0.199000 -0.847500
vn -0.874500 0.143100 0.463500
vn 0.865100 0.099000 -0.491700
vn -0.477200 -0.146900 -0.866500
vn 0.016500 -0.976300 -0.215600
vn -0.045300 0.989800 0.135400
vn 0.495600 0.128700 0.859000
vn 0.700800 -0.492600 0.515900
vn -0.409700 -0.903000 0.129600
vn 0.498500 0.859800 -0.110500
vn -0.758600 0.364500 -0.540100
vn 0.306600 -0.468000 -0.828900
vn -0.620100 0.243600 0.745800
vn -0.871300 0.214600 -0.441400
vn 0.440200 0.897800 -0.014800
vn -0.279400 -0.948400 0.149600
vn 0.537300 -0.642900 0.545800
vn 0.777600 -0.394000 0.490100
vn -0.244400 -0.951700 0.185700
vn 0.331100 0.928700 -0.167200
vn -0.852200 0.201200 -0.482900
vn 0.280500 -0.479600 -0.831500
vn -0.429600 0.288000 0.855900
vn -0.689900 0.505600 -0.518000
vn 0.318000 0.939300 -0.128900
vn -0.395000 -0.913200 0.100000
vn 0.693800 -0.483900 0.533400
vn 0.561400 0.821500 0.100000
vn -0.598300 0.620600 0.506800
vn 0.675100 -0.563200 -0.476500
vn -0.644600 -0.764500 0.000900
vn 0.225200 -0.247100 0.942500
vn -0.576800 0.280900 -0.767100
vn -0.790000 -0.612500 0.026500
vn 0.623300 -0.527900 -0.576900
vn -0.481600 0.687300 0.543800
vn 0.368600 0.914700 0.165700
vn 0.658400 0.750500 0.056900
vn -0.449300 0.721800 0.526400
vn 0.528300 -0.678400 -0.510500
vn -0.773000 -0.630900 0.066900
vn 0.197300 -0.245700 0.949000
vn -0.384900 0.364600 -0.847900
vn -0.548000 -0.829700 -0.106500
vn 0.516600 -0.659600 -0.546000
vn -0.585200 0.608200 0.536300
vn 0.555900 0.827300 0.080900
vn -0.096600 -0.991900 -0.082700
vn 0.585300 -0.344600 0.733900
vn -0.630600 0.254800 -0.733000
vn 0.152900 0.965400 0.211000
vn -0.645100 -0.018700 0.763900
vn 0.877400 0.124400 -0.463300
vn 0.331700 0.894500 0.299900
vn -0.535500 0.261700 -0.803000
vn 0.509900 -0.461600 0.725900
vn 0.077500 -0.995300 0.058300
vn -0.191900 -0.967600 -0.164100
vn 0.506900 -0.504200 0.699200
vn -0.555400 0.427800 -0.713100
vn 0.294400 0.897100 0.329300
vn -0.624600 -0.008200 0.780900
vn 0.793500 -0.025200 -0.608000
vn 0.084300 0.993900 0.071000
vn -0.524000 0.421600 -0.740100
vn 0.558000 -0.343900 0.755200
vn -0.082400 -0.991800 -0.097800
vn -0.894100 0.193400 0.404000
vn -0.117300 0.978100 -0.171900
vn 0.017600 -0.982700 0.184600
vn 0.880700 -0.067100 -0.468900
vn -0.431000 -0.016500 -0.902200
vn 0.593100 0.333500 0.732800
vn 0.893100 0.140300 -0.427400
vn 0.078900 -0.956100 0.282200
vn -0.253800 0.954600 -0.155800
vn -0.832600 0.407000 0.375700
vn -0.907800 0.066900 0.414100
vn -0.288500 0.950000 -0.119600
vn 0.200900 -0.969900 0.137300
vn 0.873500 0.129400 -0.469400
vn -0.414300 0.005400 -0.910100
vn 0.443100 0.232800 0.865700
vn 0.891500 -0.210100 -0.401300
vn 0.214300 -0.960800 0.175900
vn -0.132700 0.970400 -0.201900
vn -0.885100 0.194900 0.422600
vn -0.829800 0.130000 0.542700
vn -0.119100 0.992900 -0.006200
vn 0.021900 -0.999300 0.031100
vn 0.810600 0.004600 -0.585500
vn -0.545100 0.120300 -0.829700
vn 0.690100 0.218800 0.689900
vn 0.832400 0.203400 -0.515400
vn 0.095900 -0.987800 0.122700
vn -0.252800 0.967200 0.024000
vn -0.768300 0.345400 0.538900
vn -0.844600 0.003500 0.535400
vn -0.282600 0.957100 0.063400
vn 0.197700 -0.979600 -0.037400
vn 0.807300 0.199000 -0.555600
vn -0.529100 0.143100 -0.836400
vn 0.556600 0.099000 0.824900
vn 0.827300 -0.146900 -0.542200
vn 0.216200 -0.976300 -0.000100
vn -0.138500 0.989800 -0.034800
vn -0.818500 0.128700 0.559900
vn 0.991400 -0.072100 0.109200
vn 0.095300 -0.516800 0.850800
vn -0.000800 0.489700 -0.871900
vn -0.999500 -0.030500 -0.010500
vn -0.012200 -0.938200 -0.345800
vn -0.186100 0.752600 0.631700
vn -0.978300 -0.058600 0.198500
vn -0.010800 0.588900 -0.808200
vn 0.223000 -0.549400 0.805300
vn 0.938300 -0.142400 0.315200
vn 0.999600 -0.027000 -0.010000
vn 0.269700 -0.530500 0.803600
vn -0.184800 0.517600 -0.835400
vn -0.980000 -0.098800 0.173000
vn -0.029200 -0.945600 -0.323900
vn 0.000000 0.840300 0.542100
vn -0.989100 0.078900 -0.124600
vn -0.179200 0.553000 -0.813700
vn 0.095300 -0.546100 0.832300
vn 0.991700 -0.053100 0.117400
vn 0.837400 0.229400 -0.496100
vn 0.412200 0.709800 0.571200
vn -0.321100 -0.723000 -0.611700
vn -0.779100 -0.159800 0.606100
vn 0.545300 -0.555100 0.628100
vn -0.583400 0.757900 -0.292000
vn -0.739300 0.037500 0.672400
vn -0.387000 -0.639900 -0.664000
vn 0.532300 0.676600 0.508700
vn 0.843400 0.403300 -0.355000
vn 0.813300 0.126600 -0.567900
vn 0.558200 0.686100 0.466500
vn -0.483600 -0.707600 -0.515100
vn -0.717100 0.003300 0.696900
vn 0.536900 -0.538200 0.649700
vn -0.490400 0.719000 -0.492500
vn -0.840100 -0.242300 0.485300
vn -0.499800 -0.677600 -0.539400
vn 0.429300 0.685200 0.588400
vn 0.826400 0.241800 -0.508500
vn 0.041700 0.163400 0.985700
vn -0.477300 0.872700 0.103400
vn 0.460200 -0.887800 -0.005400
vn -0.141500 -0.061600 -0.988000
vn -0.943700 -0.312000 0.109600
vn 0.745900 0.593500 -0.302200
vn -0.160800 0.149000 -0.975700
vn 0.559500 -0.828300 -0.029800
vn -0.496800 0.835100 0.236200
vn -0.027900 0.368700 0.929100
vn 0.083800 0.043300 0.995500
vn -0.473000 0.835200 0.280600
vn 0.468600 -0.862000 -0.193200
vn -0.201600 0.125000 -0.971500
vn -0.952300 -0.290700 0.092300
vn 0.851000 0.510700 -0.122000
vn -0.035100 -0.179000 -0.983200
vn 0.505000 -0.841300 -0.192700
vn -0.506900 0.855300 0.107600
vn 0.060800 0.171000 0.983400
usemtl Material.004
s off
f 46/1/1 45/2/1 40/3/1
f 45/4/2 47/1/2 44/5/2
f 46/4/3 38/6/3 42/7/3
f 48/8/4 42/7/4 44/9/4
f 42/10/5 38/11/5 40/12/5
f 39/13/6 37/14/6 41/15/6
f 41/16/7 48/8/7 47/17/7
f 41/16/8 37/18/8 46/4/8
f 39/18/9 43/19/9 47/1/9
f 37/19/10 39/20/10 45/2/10
f 38/5/11 46/1/11 40/3/11
f 40/6/12 45/4/12 44/5/12
f 48/8/13 46/4/13 42/7/13
f 47/17/14 48/8/14 44/9/14
f 44/21/15 42/10/15 40/12/15
f 43/22/16 39/13/16 41/15/16
f 43/23/17 41/16/17 47/17/17
f 48/8/18 41/16/18 46/4/18
f 45/4/19 39/18/19 47/1/19
f 46/1/20 37/19/20 45/2/20
usemtl Material.001
f 10/1/21 9/2/21 4/3/21
f 9/4/22 11/1/22 8/5/22
f 10/4/23 2/6/23 6/7/23
f 12/8/24 6/7/24 8/9/24
f 6/10/25 2/11/25 4/12/25
f 3/13/26 1/14/26 5/15/26
f 5/16/27 12/8/27 11/17/27
f 5/16/28 1/18/28 10/4/28
f 3/18/29 7/19/29 11/1/29
f 1/19/30 3/20/30 9/2/30
f 2/5/31 10/1/31 4/3/31
f 4/6/32 9/4/32 8/5/32
f 12/8/33 10/4/33 6/7/33
f 11/17/34 12/8/34 8/9/34
f 8/21/35 6/10/35 4/12/35
f 7/22/36 3/13/36 5/15/36
f 7/23/37 5/16/37 11/17/37
f 12/8/38 5/16/38 10/4/38
f 9/4/39 3/18/39 11/1/39
f 10/1/40 1/19/40 9/2/40
usemtl Material.002
f 22/1/41 21/2/41 16/3/41
f 21/4/42 23/1/42 20/5/42
f 22/4/43 14/6/43 18/7/43
f 24/8/44 18/7/44 20/9/44
f 18/10/45 14/11/45 16/12/45
f 15/13/46 13/14/46 17/15/46
f 17/16/47 24/8/47 23/17/47
f 17/16/48 13/18/48 22/4/48
f 15/18/49 19/19/49 23/1/49
f 13/19/50 15/20/50 21/2/50
f 14/5/51 22/1/51 16/3/51
f 16/6/52 21/4/52 20/5/52
f 24/8/53 22/4/53 18/7/53
f 23/17/54 24/8/54 20/9/54
f 20/21/55 18/10/55 16/12/55
f 19/22/56 15/13/56 17/15/56
f 19/23/57 17/16/57 23/17/57
f 24/8/58 17/16/58 22/4/58
f 21/4/59 15/18/59 23/1/59
f 22/1/60 13/19/60 21/2/60
usemtl Material.003
f 34/1/61 33/2/61 28/3/61
f 33/4/62 35/1/62 32/5/62
f 34/4/63 26/6/63 30/7/63
f 36/8/64 30/7/64 32/9/64
f 30/10/65 26/11/65 28/12/65
f 27/13/66 25/14/66 29/15/66
f 29/16/67 36/8/67 35/17/67
f 29/16/68 25/18/68 34/4/68
f 27/18/69 31/19/69 35/1/69
f 25/19/70 27/20/70 33/2/70
f 26/5/71 34/1/71 28/3/71
f 28/6/72 33/4/72 32/5/72
f 36/8/73 34/4/73 30/7/73
f 35/17/74 36/8/74 32/9/74
f 32/21/75 30/10/75 28/12/75
f 31/22/76 27/13/76 29/15/76
f 31/23/77 29/16/77 35/17/77
f 36/8/78 29/16/78 34/4/78
f 33/4/79 27/18/79 35/1/79
f 34/1/80 25/19/80 33/2/80
usemtl Material.005
f 58/1/81 57/2/81 52/3/81
f 57/4/82 59/1/82 56/5/82
f 58/4/83 50/6/83 54/7/83
f 60/8/84 54/7/84 56/9/84
f 54/10/85 50/11/85 52/12/85
f 51/13/86 49/14/86 53/15/86
f 53/16/87 60/8/87 59/17/87
f 53/16/88 49/18/88 58/4/88
f 51/18/89 55/19/89 59/1/89
f 49/19/90 51/20/90 57/2/90
f 50/5/91 58/1/91 52/3/91
f 52/6/92 57/4/92 56/5/92
f 60/8/93 58/4/93 54/7/93
f 59/17/94 60/8/94 56/9/94
f 56/21/95 54/10/95 52/12/95
f 55/22/96 51/13/96 53/15/96
f 55/23/97 53/16/97 59/17/97
f 60/8/98 53/16/98 58/4/98
f 57/4/99 51/18/99 59/1/99
f 58/1/100 49/19/100 57/2/100
usemtl Material.006
f 70/1/101 69/2/101 64/3/101
f 69/4/102 71/1/102 68/5/102
f 70/4/103 62/6/103 66/7/103
f 72/8/104 66/7/104 68/9/104
f 66/10/105 62/11/105 64/12/105
f 63/13/106 61/14/106 65/15/106
f 65/16/107 72/8/107 71/17/107
f 65/16/108 61/18/108 70/4/108
f 63/18/109 67/19/109 71/1/109
f 61/19/110 63/20/110 69/2/110
f 62/5/111 70/1/111 64/3/111
f 64/6/112 69/4/112 68/5/112
f 72/8/113 70/4/113 66/7/113
f 71/17/114 72/8/114 68/9/114
f 68/21/115 66/10/115 64/12/115
f 67/22/116 63/13/116 65/15/116
f 67/23/117 65/16/117 71/17/117
f 72/8/118 65/16/118 70/4/118
f 69/4/119 63/18/119 71/1/119
f 70/1/120 61/19/120 69/2/120
usemtl Material.007
f 82/1/121 81/2/121 76/3/121
f 81/4/122 83/1/122 80/5/122
f 82/4/123 74/6/123 78/7/123
f 84/8/124 78/7/124 80/9/124
f 78/10/125 74/11/125 76/12/125
f 75/13/126 73/14/126 77/15/126
f 77/16/127 84/8/127 83/17/127
f 77/16/128 73/18/128 82/4/128
f 75/18/129 79/19/129 83/1/129
f 73/19/130 75/20/130 81/2/130
f 74/5/131 82/1/131 76/3/131
f 76/6/132 81/4/132 80/5/132
f 84/8/133 82/4/133 78/7/133
f 83/17/134 84/8/134 80/9/134
f 80/21/135 78/10/135 76/12/135
f 79/22/136 75/13/136 77/15/136
f 79/23/137 77/16/137 83/17/137
f 84/8/138 77/16/138 82/4/138
f 81/4/139 75/18/139 83/1/139
f 82/1/140 73/19/140 81/2/140
usemtl Material.008
f 94/1/141 93/2/141 88/3/141
f 93/4/142 95/1/142 92/5/142
f 94/4/143 86/6/143 90/7/143
f 96/8/144 90/7/144 92/9/144
f 90/10/145 86/11/145 88/12/145
f 87/13/146 85/14/146 89/15/146
f 89/16/147 96/8/147 95/17/147
f 89/16/148 85/18/148 94/4/148
f 87/18/149 91/19/149 95/1/149
f 85/19/150 87/20/150 93/2/150
f 86/5/151 94/1/151 88/3/151
f 88/6/152 93/4/152 92/5/152
f 96/8/153 94/4/153 90/7/153
f 95/17/154 96/8/154 92/9/154
f 92/21/155 90/10/155 88/12/155
f 91/22/156 87/13/156 89/15/156
f 91/23/157 89/16/157 95/17/157
f 96/8/158 89/16/158 94/4/158
f 93/4/159 87/18/159 95/1/159
f 94/1/160 85/19/160 93/2/160
usemtl Material.009
f 106/1/161 105/2/161 100/3/161
f 105/4/162 107/1/162 104/5/162
f 106/4/163 98/6/163 102/7/163
f 108/8/164 102/7/164 104/9/164
f 102/10/165 98/11/165 100/12/165
f 99/13/166 97/14/166 101/15/166
f 101/16/167 108/8/167 107/17/167
f 101/16/168 97/18/168 106/4/168
f 99/18/169 103/19/169 107/1/169
f 97/19/170 99/20/170 105/2/170
f 98/5/171 106/1/171 100/3/171
f 100/6/172 105/4/172 104/5/172
f 108/8/173 106/4/173 102/7/173
f 107/17/174 108/8/174 104/9/174
f 104/21/175 102/10/175 100/12/175
f 103/22/176 99/13/176 101/15/176
f 103/23/177 101/16/177 107/17/177
f 108/8/178 101/16/178 106/4/178
f 105/4/179 99/18/179 107/1/179
f 106/1/180 97/19/180 105/2/180
usemtl Material.010
f 118/1/181 117/2/181 112/3/181
f 117/4/182 119/1/182 116/5/182
f 118/4/183 110/6/183 114/7/183
f 120/8/184 114/7/184 116/9/184
f 114/10/185 110/11/185 112/12/185
f 111/13/186 109/14/186 113/15/186
f 113/16/187 120/8/187 119/17/187
f 113/16/188 109/18/188 118/4/188
f 111/18/189 115/19/189 119/1/189
f 109/19/190 111/20/190 117/2/190
f 110/5/191 118/1/191 112/3/191
f 112/6/192 117/4/192 116/5/192
f 120/8/193 118/4/193 114/7/193
f 119/17/194 120/8/194 116/9/194
f 116/21/195 114/10/195 112/12/195
f 115/22/196 111/13/196 113/15/196
f 115/23/197 113/16/197 119/17/197
f 120/8/198 113/16/198 118/4/198
f 117/4/199 111/18/199 119/1/199
f 118/1/200 109/19/200 117/2/200
usemtl Material.011
f 130/1/201 129/2/201 124/3/201
f 129/4/202 131/1/202 128/5/202
f 130/4/203 122/6/203 126/7/203
f 132/8/204 126/7/204 128/9/204
f 126/10/205 122/11/205 124/12/205
f 123/13/206 121/14/206 125/15/206
f 125/16/207 132/8/207 131/17/207
f 125/16/208 121/18/208 130/4/208
f 123/18/209 127/19/209 131/1/209
f 121/19/210 123/20/210 129/2/210
f 122/5/211 130/1/211 124/3/211
f 124/6/212 129/4/212 128/5/212
f 132/8/213 130/4/213 126/7/213
f 131/17/214 132/8/214 128/9/214
f 128/21/215 126/10/215 124/12/215
f 127/22/216 123/13/216 125/15/216
f 127/23/217 125/16/217 131/17/217
f 132/8/218 125/16/218 130/4/218
f 129/4/219 123/18/219 131/1/219
f 130/1/220 121/19/220 129/2/220
usemtl Material.012
f 142/1/221 141/2/221 136/3/221
f 141/4/222 143/1/222 140/5/222
f 142/4/223 134/6/223 138/7/223
f 144/8/224 138/7/224 140/9/224
f 138/10/225 134/11/225 136/12/225
f 135/13/226 133/14/226 137/15/226
f 137/16/227 144/8/227 143/17/227
f 137/16/228 133/18/228 142/4/228
f 135/18/229 139/19/229 143/1/229
f 133/19/230 135/20/230 141/2/230
f 134/5/231 142/1/231 136/3/231
f 136/6/232 141/4/232 140/5/232
f 144/8/233 142/4/233 138/7/233
f 143/17/234 144/8/234 140/9/234
f 140/21/235 138/10/235 136/12/235
f 139/22/236 135/13/236 137/15/236
f 139/23/237 137/16/237 143/17/237
f 144/8/238 137/16/238 142/4/238
f 141/4/239 135/18/239 143/1/239
f 142/1/240 133/19/240 141/2/240
