# Blender v2.75 (sub 0) OBJ File: 'fresh_apple.blend'
# www.blender.org
mtllib fresh_apple.mtl
o Cube
v 0.073310 -0.083786 -0.074490
v 0.073310 -0.083786 0.055093
v -0.056302 -0.083824 0.055122
v -0.056302 -0.083824 -0.074520
v 0.073219 0.082989 -0.074399
v 0.073219 0.082989 0.055001
v -0.056210 0.083027 0.055030
v -0.056210 0.083027 -0.074428
v 0.096083 -0.000342 -0.097264
v 0.096083 -0.000342 0.077866
v -0.079100 -0.000342 0.077919
v -0.079100 -0.000342 -0.097316
v 0.008523 -0.098260 -0.085735
v 0.008523 -0.098260 0.066338
v 0.008523 0.097425 -0.085600
v 0.008523 0.097425 0.066203
v 0.008526 -0.000323 -0.133572
v 0.008526 -0.000323 0.114174
v 0.084538 -0.098232 -0.009699
v -0.067535 -0.098288 -0.009699
v 0.084403 0.097398 -0.009699
v -0.067401 0.097453 -0.009699
v -0.115407 -0.000322 -0.009699
v 0.132338 -0.000323 -0.009699
v 0.008532 0.086565 -0.009699
v 0.008532 -0.096166 -0.009699
v 0.042655 -0.114533 0.024436
v 0.043437 0.113119 0.025218
v -0.026405 0.113147 0.025227
v -0.025623 -0.114561 0.024444
v 0.043437 0.113119 -0.044615
v 0.042655 -0.114533 -0.043833
v -0.025623 -0.114561 -0.043842
v -0.026405 0.113147 -0.044624
v 0.059061 0.050209 0.091376
v 0.059061 0.050209 -0.110774
v -0.042033 0.050229 -0.110813
v -0.042033 0.050229 0.091415
v -0.092610 0.050238 0.040868
v 0.109579 0.050200 0.040829
v 0.109579 0.050200 -0.060227
v -0.092610 0.050238 -0.060265
v 0.059108 -0.050913 -0.110868
v 0.059108 -0.050913 0.091471
v -0.042081 -0.050932 0.091510
v -0.042081 -0.050932 -0.110907
v -0.092704 -0.050942 0.040915
v 0.109674 -0.050903 0.040876
v 0.109674 -0.050903 -0.060274
v -0.092704 -0.050942 -0.060313
v 0.010570 0.129683 -0.003521
v 0.003942 0.083496 -0.007235
v 0.004494 0.134786 -0.014075
v 0.010900 0.083496 -0.022441
v 0.022158 0.134786 -0.011945
v 0.022158 0.083496 -0.007235
v 0.012407 0.120389 0.052337
v -0.001458 0.140645 0.003278
v 0.007838 0.135592 0.002517
v 0.030383 0.138851 0.004343
v -0.008429 0.136070 0.022391
v 0.009663 0.137944 0.005536
v 0.035299 0.135419 0.022924
vt 0.597705 0.359326
vt 0.746045 0.359326
vt 0.746045 0.210986
vt 0.597705 0.210986
vt 0.869117 0.283451
vt 0.857993 0.283451
vt 0.857993 0.294576
vt 0.857993 0.289014
vt 0.874680 0.289014
vt 0.863555 0.277889
vt 0.857993 0.272326
vt 0.857993 0.277889
vt 0.871899 0.286232
vt 0.857993 0.286232
vt 0.880242 0.294576
vt 0.439383 0.941646
vt 0.033550 0.941646
vt 0.033550 0.535814
vt 0.439383 0.535814
vn -0.887600 -0.180000 0.423900
vn 0.564300 0.075500 0.822100
vn 0.802500 -0.054600 -0.594100
vn 0.063200 0.960300 -0.271600
vn 0.044300 -0.703900 0.708900
vn -0.464600 -0.875000 0.136100
vn 0.007600 0.888000 0.459700
vn -0.170500 -0.942400 -0.287800
vn 0.032000 -0.981300 -0.189700
vn 0.011600 0.971500 0.236800
vn -0.897400 0.161800 -0.410600
vn 0.000000 -0.080100 0.996800
vn 0.117900 0.174200 -0.977600
vn 0.037200 0.950600 -0.308200
vn 0.413900 -0.910100 0.018100
vn -0.803200 -0.564800 0.189300
vn -0.300000 -0.656000 0.692600
vn 0.069100 -0.806700 0.586900
vn 0.049800 0.984400 0.168700
vn -0.851600 -0.379900 -0.361200
vn -0.659700 -0.751500 0.000000
vn -0.851600 -0.379900 0.361200
vn -0.521100 0.675600 0.521500
vn -0.360500 0.381500 0.851100
vn 0.000400 0.752600 0.658400
vn -0.850900 0.381600 -0.361000
vn -0.521100 0.675600 -0.521500
vn -0.360500 0.381500 -0.851100
vn -0.706900 0.001000 -0.707300
vn -0.360700 -0.379800 -0.851800
vn -0.159600 0.974100 -0.160000
vn 0.000100 1.000000 0.000000
vn 0.160300 0.974000 -0.159900
vn 0.361200 0.381500 0.850900
vn 0.521700 0.675300 0.521300
vn 0.658600 0.752500 0.000000
vn 0.851100 0.381400 -0.360700
vn 0.521700 0.675300 -0.521300
vn 0.160300 0.974000 0.159900
vn -0.159600 0.974100 0.160000
vn 0.000400 0.001000 -1.000000
vn 0.361500 -0.379700 -0.851600
vn -1.000000 0.001000 0.000000
vn -0.850900 0.381600 0.361000
vn 0.851100 0.381400 0.360700
vn 1.000000 0.001000 0.000000
vn -0.179900 -0.967000 -0.180300
vn 0.000400 -0.751300 -0.659900
vn 0.180600 -0.966900 -0.180200
vn -0.658200 0.752900 0.000000
vn 0.000400 0.752600 -0.658400
vn 0.361200 0.381500 -0.850900
vn -0.179900 -0.967000 0.180300
vn -0.521000 -0.675700 -0.521500
vn 0.180600 -0.966900 0.180200
vn 0.000100 -1.000000 0.000000
vn 0.851800 -0.379600 0.361000
vn 0.660100 -0.751100 0.000000
vn 0.851800 -0.379600 -0.361000
vn 0.521700 -0.675400 -0.521200
vn 0.521700 -0.675400 0.521200
vn 0.707300 0.001000 -0.706900
vn 0.707300 0.001000 0.706900
vn -0.706900 0.001000 0.707300
vn -0.360700 -0.379800 0.851800
vn 0.000400 0.001000 1.000000
vn 0.361500 -0.379700 0.851600
vn -0.521000 -0.675700 0.521500
vn 0.000400 -0.751300 0.659900
usemtl Material
s off
f 51/1/1 53/2/1 54/3/1
f 56/4/2 55/1/2 51/2/2
f 55/1/3 56/2/3 54/3/3
f 58/5/4 60/6/4 55/7/4
f 60/5/5 59/8/5 51/7/5
f 59/9/6 58/6/6 53/7/6
f 61/10/7 57/11/7 63/12/7
f 62/13/8 61/12/8 58/6/8
f 60/5/9 63/10/9 62/14/9
f 58/5/10 61/10/10 63/12/10
f 52/4/11 51/1/11 54/3/11
f 52/3/12 56/4/12 51/2/12
f 53/4/13 55/1/13 54/3/13
f 53/15/14 58/5/14 55/7/14
f 55/15/15 60/5/15 51/7/15
f 51/15/16 59/9/16 53/7/16
f 59/9/17 62/13/17 58/6/17
f 59/8/18 60/5/18 62/14/18
f 60/6/19 58/5/19 63/12/19
s 1
f 50/16/20 20/17/21 47/18/22
f 7/16/23 38/17/24 16/17/25
f 42/18/26 8/17/27 37/18/28
f 50/18/20 12/17/29 46/18/30
f 34/19/31 25/16/32 31/17/33
f 16/16/25 35/17/34 6/17/35
f 21/16/36 41/17/37 5/18/38
f 28/16/39 21/17/36 31/18/33
f 29/16/40 25/17/32 34/18/31
f 46/16/30 17/17/41 43/18/42
f 42/16/26 23/17/43 39/18/44
f 40/16/45 24/17/46 41/18/37
f 33/16/47 13/17/48 32/18/49
f 8/16/27 42/17/26 22/16/50
f 37/16/28 15/17/51 36/18/52
f 30/19/53 20/16/21 33/17/47
f 4/17/54 33/18/47 20/18/21
f 27/19/55 26/16/56 32/17/49
f 48/16/57 19/17/58 49/18/59
f 4/16/54 46/17/30 13/18/48
f 13/16/48 43/17/42 1/18/60
f 30/16/53 26/17/56 27/18/55
f 22/16/50 39/17/44 7/16/23
f 2/19/61 27/16/55 19/18/58
f 12/16/29 50/17/20 23/18/43
f 24/16/46 49/17/59 9/18/62
f 10/16/63 48/17/57 24/18/46
f 23/16/43 47/17/22 11/18/64
f 11/16/64 45/17/65 18/18/66
f 8/19/27 34/16/31 15/18/51
f 15/19/51 31/16/33 5/18/38
f 18/16/66 44/17/67 10/18/63
f 19/19/58 32/16/49 1/18/60
f 40/18/45 6/19/35 35/16/34
f 38/16/24 18/17/66 35/18/34
f 20/17/21 30/18/53 3/18/68
f 12/16/29 37/17/28 17/18/41
f 3/16/68 30/17/53 14/18/69
f 14/16/69 27/17/55 2/18/61
f 17/16/41 36/17/52 9/18/62
f 48/18/57 10/19/63 44/16/67
f 43/16/42 9/19/62 49/16/59
f 45/16/65 14/17/69 44/18/67
f 36/16/52 5/19/38 41/16/37
f 6/16/35 40/17/45 21/18/36
f 38/18/24 7/19/23 39/16/44
f 29/19/40 16/16/25 28/17/39
f 45/18/65 11/19/64 47/16/22
f 23/19/43 50/16/20 47/18/22
f 29/18/40 7/16/23 16/17/25
f 12/17/29 42/18/26 37/18/28
f 4/17/54 50/18/20 46/18/30
f 15/18/51 34/19/31 31/17/33
f 28/18/39 16/16/25 6/17/35
f 31/19/33 21/16/36 5/18/38
f 25/19/32 28/16/39 31/18/33
f 22/19/50 29/16/40 34/18/31
f 13/19/48 46/16/30 43/18/42
f 22/19/50 42/16/26 39/18/44
f 21/19/36 40/16/45 41/18/37
f 26/19/56 33/16/47 32/18/49
f 34/17/31 8/16/27 22/16/50
f 17/19/41 37/16/28 36/18/52
f 26/18/56 30/19/53 33/17/47
f 50/19/20 4/17/54 20/18/21
f 19/18/58 27/19/55 32/17/49
f 24/19/46 48/16/57 49/18/59
f 33/19/47 4/16/54 13/18/48
f 32/19/49 13/16/48 1/18/60
f 14/19/69 30/16/53 27/18/55
f 29/17/40 22/16/50 7/16/23
f 48/19/57 2/19/61 19/18/58
f 42/19/26 12/16/29 23/18/43
f 41/19/37 24/16/46 9/18/62
f 40/19/45 10/16/63 24/18/46
f 39/19/44 23/16/43 11/18/64
f 38/19/24 11/16/64 18/18/66
f 37/19/28 8/19/27 15/18/51
f 36/19/52 15/19/51 5/18/38
f 35/19/34 18/16/66 10/18/63
f 49/19/59 19/19/58 1/18/60
f 10/17/63 40/18/45 35/16/34
f 16/19/25 38/16/24 35/18/34
f 47/19/22 20/17/21 3/18/68
f 46/19/30 12/16/29 17/18/41
f 45/19/65 3/16/68 14/18/69
f 44/19/67 14/16/69 2/18/61
f 43/19/42 17/16/41 9/18/62
f 2/17/61 48/18/57 44/16/67
f 1/19/60 43/16/42 49/16/59
f 18/19/66 45/16/65 44/18/67
f 9/19/62 36/16/52 41/16/37
f 28/19/39 6/16/35 21/18/36
f 11/17/64 38/18/24 39/16/44
f 25/18/32 29/19/40 28/17/39
f 3/17/68 45/18/65 47/16/22
