# Blender v2.75 (sub 0) OBJ File: ''
# www.blender.org
mtllib untitled.mtl
o Cube
v 1.000000 -1.000000 -1.000000
v 1.000000 -1.000000 1.000000
v -1.000000 -1.000000 1.000000
v -1.000000 -1.000000 -1.000000
v 1.000000 1.000000 -0.999999
v 0.999999 1.000000 1.000001
v -1.000000 1.000000 1.000000
v -1.000000 1.000000 -1.000000
vt 0.999900 0.000100
vt 0.999900 0.999900
vt 0.000100 0.999900
vt 0.000100 0.000100
vt 0.000000 0.000000
vn 1.000000 0.000000 0.000000
vn 0.000000 0.000000 -1.000000
vn 0.000000 -1.000000 0.000000
vn 0.000000 1.000000 0.000000
vn -0.000000 -0.000000 1.000000
vn -1.000000 -0.000000 -0.000000
usemtl Material
s off
f 1/1/1 5/2/1 6/3/1 2/4/1
usemtl Material_map.png
f 5/1/2 1/2/2 4/3/2 8/4/2
usemtl Material_NONE
f 1/5/3 2/5/3 3/5/3 4/5/3
f 5/5/4 8/5/4 7/5/4 6/5/4
f 2/5/5 6/5/5 7/5/5 3/5/5
f 3/5/6 7/5/6 8/5/6 4/5/6
