# Blender v2.75 (sub 0) OBJ File: 'house.blend'
# www.blender.org
mtllib house.mtl
o Cube
v -1.016640 3.385118 -1.385458
v -1.016641 -0.520344 -1.385456
v -1.016641 3.385118 2.181853
v -1.016642 -0.520343 2.181854
v -10.587219 3.385118 -5.214223
v -5.260382 0.825863 -1.368673
v -1.016641 0.871866 -1.385457
v -5.259377 -0.527612 -1.374642
v -1.016639 0.812192 -5.214221
v -5.258371 -0.512305 2.184275
v -5.258369 0.812192 -5.214221
v -10.587220 -0.520343 -5.214223
v -1.016642 0.857710 2.181854
v -5.258371 0.846077 2.181852
v -10.587219 0.812193 -5.214223
v -5.258369 -0.520344 -5.214221
v -0.846595 0.839534 -1.351887
v -0.846596 0.839535 2.361816
v -0.846597 -0.547685 2.361816
v -5.262394 0.839535 2.361815
v -5.262394 -0.547685 2.361815
v -10.809924 -0.547684 -5.337774
v -0.846593 -0.547685 -5.337771
v -0.846596 -0.547685 -1.351886
v -5.262393 0.839534 -5.337773
v -5.262393 -0.547685 -5.337773
v -10.809923 0.839535 -5.337774
v -1.016640 3.385118 -3.881244
v -5.258370 -0.520344 -3.881244
v -10.587219 3.385118 -3.881246
v -1.016640 -0.520344 -3.881237
v -1.016640 0.812192 -3.881244
v -10.587221 -0.520343 -3.881246
v -10.809925 -0.547684 -3.950096
v -10.809924 0.839535 -3.950096
v -0.846594 0.839534 -3.950094
v -1.016640 3.385118 -2.633351
v -1.016640 0.875451 -2.633350
v -1.016640 -0.520344 -2.633350
v -0.846595 -0.547685 -2.650990
v -0.846595 0.839534 -2.650990
v -5.258370 -0.520344 -2.633351
v -10.587220 3.385118 -2.633353
v -10.587221 -0.520343 -2.633353
v -10.809925 -0.547684 -2.650992
v -10.809925 0.839535 -2.650993
v -1.016640 2.047115 -2.633351
v -1.016640 2.047115 -3.881244
v -1.016640 3.385118 -5.214221
v -5.258369 3.385118 -5.214222
v -5.258371 3.385118 2.181852
v -10.587220 3.385118 -1.385459
v -10.818208 3.385118 -5.444747
v -0.806732 3.385118 -5.444745
v -3.106282 5.724382 -3.459039
v -3.106282 5.724382 2.366903
v -5.487841 3.385118 2.366903
v -10.818208 5.724382 -3.459042
v -10.818209 3.385118 -1.314459
v -0.806733 3.385118 2.366904
v -5.487840 3.385118 -1.314457
v -1.016641 2.376032 2.181853
v -1.016641 1.051343 2.181853
v -1.016641 2.376032 1.505093
v -1.016641 1.051343 1.505093
v -1.016641 2.376032 -0.796880
v -1.016641 1.051343 -0.796880
v -1.257482 2.376032 -0.796880
v -0.510713 1.051343 1.765185
v -0.577759 2.376032 -1.294668
v -0.577759 1.051343 -1.294668
v -0.985695 2.376032 -0.769596
v -0.985695 1.051343 -0.769596
v -0.546813 2.376032 -1.267385
v -0.546813 1.051343 -1.267384
v -0.989165 1.051343 1.461767
v -1.257482 2.376032 1.505093
v -0.989165 2.376032 1.461767
v -0.538189 1.051343 1.808511
v -0.538188 2.376032 1.808511
v -0.510713 2.376032 1.765185
v -1.189738 1.051343 0.113517
v -1.189738 1.051343 0.460459
v -1.016641 1.051343 0.114254
v -1.016641 1.051343 0.455537
v -1.189738 2.381265 0.113517
v -1.189738 2.381265 0.460459
v -1.016641 2.381265 0.114254
v -1.016641 2.381265 0.455537
v -5.258370 3.385118 -1.385458
v -5.160143 0.812192 -1.385458
v -5.160144 0.846077 2.181852
v -5.160144 3.385118 2.181852
v -5.160144 -0.488191 2.191545
v -10.809925 0.839535 -1.351889
v -10.809925 -0.547684 -1.351889
v -5.160143 3.385118 -1.385458
v -5.160143 -0.522076 -1.375765
v -5.265029 0.825712 -1.474161
v -10.591867 0.839381 -1.457381
v -10.814572 0.839384 -1.457377
v -10.814573 -0.547836 -1.457377
v -5.263017 3.384966 -1.490945
v -10.591867 3.384967 -1.490947
v -5.164790 3.384966 -1.490945
v -5.164790 0.812041 -1.490946
v -5.264023 -0.527764 -1.480130
v -5.164790 -0.522228 -1.481252
v -1.257472 3.385118 -2.633351
v -1.257472 3.385118 -1.385458
v -1.257472 2.047115 -2.633351
v -1.257473 1.051343 -1.385457
v -1.257473 0.871866 -1.385457
v -1.257473 1.051343 2.181853
v -1.257474 0.857710 2.181858
v -1.257472 0.875451 -2.633346
v -1.257472 2.376032 -1.385457
v -1.257473 3.385118 2.181853
v -1.257473 2.376032 2.181853
v -1.257473 1.051343 1.505093
v -1.257473 1.051343 -0.796880
v -1.257472 -0.520343 -2.633346
v -1.257474 -0.520343 2.181858
v -1.257482 0.812192 -5.214221
v -1.257482 0.812192 -3.881244
v -1.257482 2.047115 -3.881244
v -1.257482 3.385118 -3.881244
v -1.257482 3.385118 -5.214221
v -0.846594 0.839534 -5.337772
v -0.846594 -0.547682 -3.881237
v -0.846594 0.839538 -3.881237
v -1.257482 0.839534 -5.337773
v -1.257481 -0.547686 -5.337772
v -1.257482 -0.547682 -3.881237
v -1.257482 0.839537 -3.881238
vt -19.021587 -24.499100
vt -20.706671 -24.984207
vt -19.212503 -30.105810
vt -18.531675 -30.455475
vt -18.508074 -30.452370
vt -18.506733 -30.449837
vt -18.500265 -30.398581
vt -18.498955 -30.410692
vt -22.386917 -9.514040
vt -21.653013 -12.738117
vt -18.580618 -12.044828
vt -13.378032 -23.661119
vt -15.446827 -11.853798
vt -18.644722 -12.563695
vt 18.792269 -38.130898
vt 16.477047 -37.276230
vt 16.254864 -37.299896
vt -18.496826 -30.449411
vt -18.074160 -29.906353
vt -18.141218 -30.002068
vt -18.925489 -30.103325
vt -18.269835 -29.912161
vt -18.509027 -30.451637
vt -11.412922 -10.695884
vt -11.812176 -10.400041
vt -9.630065 -23.267456
vt -15.268165 -11.302772
vt -16.002304 -8.063890
vt -18.660418 -30.189590
vt -15.246903 -11.146740
vt -18.589750 -30.187719
vt 15.549572 -12.094728
vt 15.009686 -12.033396
vt 15.009682 -15.145157
vt -13.039784 -23.743515
vt -14.174202 0.572696
vt -11.957381 -11.185537
vt -16.635206 -24.080978
vt -21.578346 -13.225200
vt -18.404467 -30.131929
vt -18.387135 -30.153910
vt -4.220332 -9.602215
vt -5.456892 1.808680
vt -16.219675 -29.770920
vt 21.802876 -35.790989
vt 18.764116 -35.757404
vt -2.763913 -22.462143
vt -1.780862 -32.188206
vt -9.312033 -23.269140
vt 19.378717 -39.247421
vt 26.115652 -35.708893
vt -15.105524 28.841175
vt -15.252745 28.808937
vt -10.359759 40.169903
vt -14.762961 28.774282
vt -20.066959 36.451229
vt -25.466703 32.720554
vt 2.866786 5.435004
vt 4.134987 27.291439
vt -7.015896 20.534418
vt 14.993890 35.631699
vt -10.352030 40.247421
vt 14.942080 35.686768
vt 10.535381 1.786827
vt 10.563141 1.722251
vt -5.406265 1.047043
vt -9.925336 33.001705
vt -18.463657 -30.223795
vt -18.437654 -30.206886
vt -18.433573 -30.194656
vt -18.466101 -30.305079
vt -18.452133 -30.295179
vt -18.355955 -30.108414
vt 15.009682 -22.793592
vt 15.563310 -22.289768
vt 15.143028 -21.883301
vt 16.363155 -23.064077
vt 15.123199 -22.937428
vt 15.152180 -25.679409
vt 15.009686 -22.809387
vt 15.009682 -25.803539
vt 15.563315 -18.016222
vt 15.676932 -18.327789
vt 15.676932 -21.978201
vt 15.143034 -18.422686
vt 15.009682 -17.512400
vt -18.443830 -30.232441
vt -18.446560 -30.234131
vt -18.445015 -30.248514
vt 16.553980 -25.887848
vt 16.436491 -25.717138
vt 16.507454 -22.906784
vt -18.511497 -30.448444
vt -18.509113 -30.452328
vt -18.509417 -30.452717
vt -18.508965 -30.452375
vt -18.509315 -30.450462
vt -20.329268 25.201717
vt -22.922564 23.073992
vt -22.750834 23.087009
vt -17.160425 16.241364
vt -16.953810 16.082848
vt -16.900839 16.074009
vt -8.080725 19.402607
vt -16.399998 17.184341
vt -13.564999 0.687157
vt -8.508493 19.718643
vt -15.998264 16.980505
vt -17.351622 16.203735
vt -7.804739 20.274540
vt -8.701619 20.308571
vt -16.953264 16.110407
vt -16.928270 16.087339
vt -18.442848 -30.221912
vt -18.444881 -30.227112
vt -18.444176 -30.224373
vt -18.444941 -30.226551
vt -18.445339 -30.230040
vt -18.437397 -30.275854
vt -18.506296 -30.397966
vt 18.647224 -36.063057
vt -18.444714 -30.219799
vt -18.460649 -30.447708
vt -18.508429 -30.230513
vt -18.470604 -30.222538
vt 16.558195 -28.875141
vt 16.558174 -25.903645
vt 15.009682 -25.903658
vt -24.732777 -13.439175
vt -5.274060 1.338589
vt 16.334566 -15.931675
vt 15.299096 -17.013863
vt 15.228476 -15.195967
vt 15.009682 -16.793932
vt 16.057018 -15.709358
vt 16.055876 -17.496607
vt 16.055876 -15.160949
vt 15.240618 -17.495321
vt -17.271185 16.083563
vt -20.187561 25.026434
vt -15.478683 17.194954
vt -17.531689 16.053507
vt -16.955082 16.233898
vt -16.670561 16.474300
vt 15.009691 -32.344036
vt 16.558187 -32.344048
vt 16.558197 -29.372555
vt -18.445194 -30.228985
vt 17.055614 -29.372561
vt 15.009705 -29.372549
vt -1.251816 -32.206963
vt -0.923550 -35.329903
vt 2.109592 -34.970329
vt 4.757188 -34.613899
vt 2.224854 -35.473942
vt 4.526290 -31.673973
vt 5.029500 -34.832081
vt -10.867440 -36.295906
vt -11.125858 -36.697983
vt -8.750603 -36.537960
vt -8.427460 -38.950500
vt -7.758036 -38.789043
vt 23.281157 -35.693089
vt 23.281387 -32.360397
vt 15.017990 -32.359848
vt 18.767637 -36.497341
vt 19.943178 -35.708893
vt 17.894806 -36.618809
vt -8.442828 -33.189911
vt -8.146844 -32.857361
vt -5.341184 -33.366455
vt -2.239541 -33.543011
vt -11.494308 -33.570518
vt -12.219749 -33.849060
vt -18.568069 -30.233398
vt -13.111785 31.056566
vt -7.756513 -36.196884
vt -1.437130 -35.458252
vt -19.307154 -8.812986
vt 15.549572 -15.083824
vt -18.440245 -30.254068
vt -18.449087 -30.227711
vt -18.368980 -30.151194
vt 15.009682 -37.353027
vt -18.445475 -30.224031
vt -18.476923 -30.322651
vt 15.009705 -28.875151
vt -25.466684 -10.215103
vt 17.055582 -32.344055
vt -18.446047 -30.228481
vt 5.041033 -31.675846
vt -8.392119 -36.160091
vt -10.807877 -39.247421
vt 15.009682 -35.693089
vt -5.167471 -33.026962
vt -18.487679 -30.366276
vt -12.932234 30.902746
vn -0.001700 1.000000 0.005800
vn 0.000000 0.000000 -1.000000
vn 0.000000 -0.994900 -0.100500
vn 1.000000 0.000000 0.000000
vn 0.000000 1.000000 -0.000000
vn -0.000000 -1.000000 0.000000
vn 0.158800 0.987300 0.000000
vn 0.002000 0.980700 0.195500
vn -0.000000 -0.976400 -0.216100
vn -0.121900 0.992500 -0.000000
vn -1.000000 0.000000 -0.000000
vn 0.000000 0.000000 1.000000
vn -0.186000 -0.982500 -0.003900
vn 0.485100 0.000000 -0.874400
vn 0.000000 0.976400 -0.216100
vn -0.121800 -0.992600 -0.000200
vn -0.206900 -0.978300 -0.002800
vn 1.000000 0.000000 0.001200
vn 0.000000 -0.675800 -0.737100
vn -0.713100 -0.701000 0.000000
vn -0.000000 -0.647100 0.762400
vn 0.700700 -0.713400 0.000000
vn -0.535600 0.000000 0.844500
vn -0.844500 0.000000 -0.535500
vn -0.750100 0.000000 -0.661300
vn 0.661300 -0.000000 -0.750100
vn -0.661300 0.000000 0.750100
vn 0.750100 0.000000 0.661300
vn 0.844500 -0.000000 0.535500
vn 0.103200 0.000000 0.994700
vn 0.000600 0.001800 1.000000
vn -0.993700 0.112000 -0.000200
vn 0.878000 -0.478600 0.002200
vn -1.000000 -0.000700 0.000300
vn -0.074200 0.001800 0.997200
vn 1.000000 0.000000 0.000500
vn -0.004100 0.000000 -1.000000
vn -0.003200 -0.006600 -1.000000
vn 0.000000 -0.006600 -1.000000
vn -0.010900 -0.007300 -0.999900
vn 0.000000 1.000000 -0.001400
vn -0.999000 0.000000 0.044000
vn -0.000000 -1.000000 -0.003700
vn -0.004300 0.000000 1.000000
vn -0.028400 0.000000 -0.999600
vn 0.003600 -1.000000 0.001300
vn 0.055700 -0.998400 -0.001000
vn 0.055700 -0.998400 0.004300
vn 0.999000 -0.000000 -0.044000
vn 0.999000 -0.000300 -0.044000
vn 0.002500 1.000000 -0.001500
vn -0.006800 -1.000000 0.000000
vn 0.158800 -0.987300 -0.000000
vn 0.998600 0.053300 0.000000
vn 0.000000 1.000000 -0.005600
vn 0.004100 0.000000 1.000000
vn 0.002700 -0.999300 -0.036300
vn -0.000000 0.988700 0.150200
vn -0.106300 -0.994300 0.000000
vn -0.000000 -1.000000 0.007200
vn -0.186800 -0.982400 -0.000000
vn -0.844500 0.000000 -0.535600
vn 0.844500 0.000000 0.535600
vn -1.000000 0.000000 0.000600
vn 0.000000 0.007300 1.000000
vn 1.000000 0.000700 0.000800
vn -0.003000 0.004400 -1.000000
vn 0.000000 -0.013200 -0.999900
vn -0.165200 0.000000 -0.986300
vn -0.164600 0.004200 -0.986400
vn 0.237800 -0.971300 0.009200
vn -0.000000 -0.999800 0.018800
vn 0.133600 0.991000 -0.009400
vn 0.003000 -0.004400 1.000000
usemtl Material
s off
f 42/1/1 8/2/1 2/3/1
f 19/4/2 21/5/2 20/6/2
f 13/7/3 18/8/3 20/6/3
f 46/9/4 45/10/4 34/11/4
f 16/12/5 12/13/5 33/14/5
f 28/15/6 37/16/6 109/17/6
f 4/18/5 39/19/5 122/20/5
f 2/3/7 24/21/7 40/22/7
f 4/18/8 10/23/8 21/5/8
f 15/24/9 27/25/9 25/26/9
f 12/13/10 22/27/10 34/11/10
f 24/21/11 19/4/11 18/8/11
f 34/11/4 22/27/4 27/28/4
f 40/22/11 24/21/11 17/29/11
f 25/26/12 27/25/12 22/30/12
f 13/7/13 7/31/13 17/29/13
f 4/18/7 19/4/7 24/21/7
f 12/32/14 22/33/14 27/34/14
f 12/13/15 16/12/15 26/35/15
f 33/14/10 34/11/10 45/10/10
f 101/36/16 27/37/16 15/24/16
f 29/38/5 33/14/5 44/39/5
f 7/31/17 38/40/17 41/41/17
f 15/24/18 5/42/18 104/43/18
f 31/44/5 29/38/5 42/1/5
f 48/45/11 47/46/11 37/16/11
f 50/47/12 5/42/12 15/24/12
f 49/48/12 50/47/12 11/49/12
f 28/15/12 127/50/12 126/51/12
f 51/52/5 57/53/5 60/54/5
f 93/55/2 118/56/2 115/57/2
f 58/58/19 55/59/19 61/60/19
f 49/61/5 3/62/5 60/54/5
f 54/63/5 53/64/5 5/65/5
f 5/65/5 53/64/5 59/66/5
f 55/59/20 54/63/20 60/54/20
f 55/59/21 58/58/21 53/64/21
f 60/54/2 57/53/2 56/67/2
f 53/64/4 58/58/4 59/66/4
f 56/67/22 57/53/22 61/60/22
f 110/68/6 109/69/6 37/70/6
f 3/71/6 118/72/6 110/68/6
f 38/40/12 116/73/12 122/20/12
f 70/74/6 74/75/6 72/76/6
f 76/77/23 69/78/23 81/79/23
f 79/80/24 80/81/24 81/79/24
f 72/76/25 74/75/25 75/82/25
f 67/83/26 66/84/26 72/76/26
f 67/83/5 73/85/5 75/82/5
f 71/86/27 75/82/27 74/75/27
f 71/86/28 70/74/28 66/84/28
f 66/87/5 68/88/5 77/89/5
f 64/90/6 78/91/6 81/79/6
f 65/92/29 76/77/29 78/91/29
f 79/80/5 69/78/5 76/77/5
f 39/19/30 40/22/30 41/41/30
f 14/93/31 10/23/31 4/18/31
f 10/23/32 8/94/32 21/5/32
f 6/95/33 14/93/33 20/6/33
f 6/95/34 8/96/34 10/97/34
f 14/98/35 10/99/35 94/100/35
f 6/95/36 20/6/36 21/5/36
f 107/101/37 102/102/37 101/103/37
f 103/104/38 99/105/38 100/106/38
f 99/105/39 103/104/39 105/107/39
f 106/108/40 108/109/40 107/101/40
f 90/110/41 97/111/41 105/107/41
f 96/112/42 95/113/42 101/103/42
f 111/114/4 112/115/4 116/116/4
f 113/117/4 112/115/4 114/118/4
f 110/68/4 118/72/4 119/119/4
f 122/20/4 116/73/4 115/120/4
f 13/7/43 115/120/43 116/73/43
f 37/16/2 47/46/2 111/121/2
f 47/122/12 111/114/12 116/116/12
f 13/7/2 4/18/2 123/123/2
f 38/40/11 7/31/11 66/124/11
f 3/71/11 1/125/11 66/124/11
f 64/126/11 65/127/11 63/128/11
f 96/129/4 45/10/4 46/9/4
f 52/130/5 59/66/5 61/60/5
f 51/52/5 90/110/5 61/60/5
f 89/131/11 88/132/11 84/133/11
f 86/134/4 87/135/4 83/136/4
f 88/132/44 86/134/44 82/137/44
f 85/138/45 83/136/45 87/135/45
f 96/112/46 102/102/46 107/101/46
f 8/139/47 107/101/47 108/109/47
f 97/111/4 93/55/4 92/140/4
f 51/52/5 93/55/5 97/111/5
f 91/141/4 92/140/4 94/100/4
f 10/99/48 8/139/48 98/142/48
f 91/141/49 106/108/49 105/107/49
f 52/130/41 90/110/41 103/104/41
f 91/141/50 98/142/50 108/109/50
f 95/113/51 6/143/51 99/144/51
f 114/145/4 120/146/4 77/147/4
f 68/88/4 121/148/4 112/115/4
f 64/149/12 77/147/12 120/146/12
f 121/148/2 68/88/2 66/87/2
f 119/150/6 77/147/6 64/126/6
f 128/151/4 127/152/4 126/153/4
f 127/152/6 128/151/6 49/48/6
f 125/154/2 126/153/2 48/155/2
f 124/156/5 125/154/5 32/157/5
f 130/158/2 134/159/2 135/160/2
f 132/161/4 135/160/4 134/159/4
f 135/160/6 132/161/6 129/162/6
f 133/163/52 134/164/52 29/165/52
f 111/166/5 47/46/5 48/45/5
f 126/167/4 127/168/4 109/17/4
f 129/169/12 25/26/12 26/35/12
f 9/170/53 129/169/53 36/171/53
f 9/170/9 11/49/9 25/26/9
f 36/171/54 129/169/54 131/172/54
f 23/173/5 133/174/5 134/159/5
f 129/169/11 23/173/11 130/158/11
f 67/175/11 7/31/11 13/7/11
f 99/176/55 14/98/55 92/140/55
f 9/170/11 32/177/11 28/178/11
f 95/113/56 96/112/56 8/139/56
f 39/19/5 42/1/5 2/3/5
f 18/8/2 19/4/2 20/6/2
f 14/93/57 13/7/57 20/6/57
f 35/179/4 46/9/4 34/11/4
f 29/38/5 16/12/5 33/14/5
f 127/168/6 28/15/6 109/17/6
f 123/123/5 4/18/5 122/20/5
f 39/19/7 2/3/7 40/22/7
f 19/4/58 4/18/58 21/5/58
f 11/49/9 15/24/9 25/26/9
f 33/14/10 12/13/10 34/11/10
f 17/29/11 24/21/11 18/8/11
f 35/179/4 34/11/4 27/28/4
f 41/41/11 40/22/11 17/29/11
f 26/35/12 25/26/12 22/30/12
f 18/8/59 13/7/59 17/29/59
f 2/3/7 4/18/7 24/21/7
f 15/180/14 12/32/14 27/34/14
f 22/30/15 12/13/15 26/35/15
f 44/39/10 33/14/10 45/10/10
f 100/106/60 101/36/60 15/24/60
f 42/1/5 29/38/5 44/39/5
f 17/29/61 7/31/61 41/41/61
f 100/106/18 15/24/18 104/43/18
f 39/19/5 31/44/5 42/1/5
f 28/15/11 48/45/11 37/16/11
f 11/49/12 50/47/12 15/24/12
f 9/170/12 49/48/12 11/49/12
f 48/45/12 28/15/12 126/51/12
f 3/62/5 51/52/5 60/54/5
f 92/140/2 93/55/2 115/57/2
f 59/66/19 58/58/19 61/60/19
f 54/63/5 49/61/5 60/54/5
f 49/61/5 54/63/5 5/65/5
f 52/130/5 5/65/5 59/66/5
f 56/67/20 55/59/20 60/54/20
f 54/63/21 55/59/21 53/64/21
f 55/59/22 56/67/22 61/60/22
f 1/125/6 110/68/6 37/70/6
f 1/125/6 3/71/6 110/68/6
f 39/19/12 38/40/12 122/20/12
f 66/84/6 70/74/6 72/76/6
f 78/91/23 76/77/23 81/79/23
f 69/78/62 79/80/62 81/79/62
f 73/85/25 72/76/25 75/82/25
f 73/85/26 67/83/26 72/76/26
f 71/86/5 67/83/5 75/82/5
f 70/74/27 71/86/27 74/75/27
f 67/83/28 71/86/28 66/84/28
f 64/181/5 66/87/5 77/89/5
f 80/81/6 64/90/6 81/79/6
f 64/90/63 65/92/63 78/91/63
f 65/92/5 79/80/5 76/77/5
f 38/40/30 39/19/30 41/41/30
f 13/7/12 14/93/12 4/18/12
f 14/93/64 6/95/64 10/97/64
f 92/140/65 14/98/65 94/100/65
f 8/94/66 6/95/66 21/5/66
f 99/144/67 107/101/67 101/103/67
f 104/43/68 103/104/68 100/106/68
f 106/108/69 99/105/69 105/107/69
f 99/144/70 106/108/70 107/101/70
f 103/104/41 90/110/41 105/107/41
f 102/102/42 96/112/42 101/103/42
f 110/68/4 117/182/4 109/69/4
f 112/115/4 113/117/4 116/116/4
f 111/114/4 117/182/4 112/115/4
f 117/182/4 111/114/4 109/69/4
f 115/118/4 113/117/4 114/118/4
f 117/182/4 110/68/4 119/119/4
f 123/123/4 122/20/4 115/120/4
f 38/183/43 13/7/43 116/73/43
f 109/184/2 37/16/2 111/121/2
f 38/185/12 47/122/12 116/116/12
f 115/120/2 13/7/2 123/123/2
f 66/124/11 37/70/11 38/40/11
f 37/70/11 66/124/11 1/125/11
f 66/124/11 7/31/11 67/175/11
f 62/186/11 3/71/11 66/124/11
f 62/187/11 64/126/11 63/128/11
f 95/188/4 96/129/4 46/9/4
f 90/110/5 52/130/5 61/60/5
f 57/53/5 51/52/5 61/60/5
f 85/138/11 89/131/11 84/133/11
f 82/137/4 86/134/4 83/136/4
f 84/133/44 88/132/44 82/137/44
f 89/131/45 85/138/45 87/135/45
f 8/139/46 96/112/46 107/101/46
f 98/142/47 8/139/47 108/109/47
f 91/141/4 97/111/4 92/140/4
f 90/110/5 51/52/5 97/111/5
f 98/142/4 91/141/4 94/100/4
f 94/100/71 10/99/71 98/142/71
f 97/111/49 91/141/49 105/107/49
f 104/43/41 52/130/41 103/104/41
f 106/108/50 91/141/50 108/109/50
f 101/103/51 95/113/51 99/144/51
f 119/150/4 114/145/4 77/147/4
f 117/182/4 68/88/4 112/115/4
f 65/189/12 64/149/12 120/146/12
f 67/190/2 121/148/2 66/87/2
f 62/187/6 119/150/6 64/126/6
f 126/153/4 124/156/4 128/151/4
f 124/156/4 126/153/4 125/154/4
f 28/178/6 127/152/6 49/48/6
f 32/157/2 125/154/2 48/155/2
f 9/191/5 124/156/5 32/157/5
f 131/192/2 130/158/2 135/160/2
f 133/193/4 132/161/4 134/159/4
f 131/192/6 135/160/6 129/162/6
f 26/194/72 133/163/72 29/165/72
f 126/167/5 111/166/5 48/45/5
f 111/166/4 126/167/4 109/17/4
f 23/173/12 129/169/12 26/35/12
f 32/195/53 9/170/53 36/171/53
f 129/169/9 9/170/9 25/26/9
f 130/158/5 23/173/5 134/159/5
f 131/192/11 129/169/11 130/158/11
f 63/196/11 67/175/11 13/7/11
f 106/197/73 99/176/73 92/140/73
f 49/48/11 9/170/11 28/178/11
f 6/143/74 95/113/74 8/139/74
